PathFileType	4	(X/Y/Z)	/Users/itak/Documents/Research/Walk-IL/dataset/trc/00263_00009.trc
DataRate	CameraRate	NumFrames	NumMarkers	Units	OrigDataRate	OrigDataStartFrame	OrigNumFrames
100.000000	100.000000	4	53	mm	100.000000	285	380
Frame#	Time	RPSI			LPSI			L3			STRN			T10			C7			CLAV			RBAK			LBAK			LSHO			LUPA			LAEL			LAOL			LWTS			LWPS			LFRA			LIFD			LHPS			LHTS			RSHO			RUPA			RAEL			RAOL			RWTS			RWPS			RFRA			RIFD			RHTS			RHPS			RBHD			LFHD			RFHD			LBHD			LHIP			RHIP			RASI			LASI			LKNE			LTHI			LANK			LTIP			LTOE			LMT1			LMT5			LHEE			RKNE			RTHI			RTIP			RTOE			RMT1			RMT5			RHEE			RANK			
		X1	Y1	Z1	X2	Y2	Z2	X3	Y3	Z3	X4	Y4	Z4	X5	Y5	Z5	X6	Y6	Z6	X7	Y7	Z7	X8	Y8	Z8	X9	Y9	Z9	X10	Y10	Z10	X11	Y11	Z11	X12	Y12	Z12	X13	Y13	Z13	X14	Y14	Z14	X15	Y15	Z15	X16	Y16	Z16	X17	Y17	Z17	X18	Y18	Z18	X19	Y19	Z19	X20	Y20	Z20	X21	Y21	Z21	X22	Y22	Z22	X23	Y23	Z23	X24	Y24	Z24	X25	Y25	Z25	X26	Y26	Z26	X27	Y27	Z27	X28	Y28	Z28	X29	Y29	Z29	X30	Y30	Z30	X31	Y31	Z31	X32	Y32	Z32	X33	Y33	Z33	X34	Y34	Z34	X35	Y35	Z35	X36	Y36	Z36	X37	Y37	Z37	X38	Y38	Z38	X39	Y39	Z39	X40	Y40	Z40	X41	Y41	Z41	X42	Y42	Z42	X43	Y43	Z43	X44	Y44	Z44	X45	Y45	Z45	X46	Y46	Z46	X47	Y47	Z47	X48	Y48	Z48	X49	Y49	Z49	X50	Y50	Z50	X51	Y51	Z51	X52	Y52	Z52	X53	Y53	Z53	

286	2.85	-97.85721588134766	1037.04931640625	-264.0909423828125	-218.0442504882812	1042.256713867188	-270.7480163574219	-171.9942932128906	1120.068115234375	-261.7936706542969	-162.6060333251953	1309.064819335938	-508.8194885253906	-161.6777191162109	1247.936401367188	-258.2648010253906	-160.8478088378906	1510.2939453125	-317.1867065429688	-158.5488586425781	1425.791625976562	-481.2868957519531	-94.49021911621094	1367.312866210938	-241.2731323242188	-270.852783203125	1473.993041992188	-296.7150268554688	-326.7929382324219	1476.348999023438	-385.0236511230469	-406.4317016601562	1359.413940429688	-351.6129150390625	-438.1282348632812	1150.158569335938	-360.1519775390625	-385.7445373535156	1130.961181640625	-291.7427368164062	-382.9678649902344	928.7694702148438	-478.0830688476562	-463.0624389648438	910.04443359375	-452.6869201660156	-454.3355407714844	1045.642700195312	-391.0419616699219	-392.4395446777344	735.0432739257812	-496.4886779785156	-458.1388854980469	823.3984375	-477.1681823730469	-405.5596923828125	830.9896850585938	-519.2902221679688	8.678738594055176	1464.119140625	-370.0111694335938	71.41606140136719	1396.66748046875	-348.2432861328125	107.7093048095703	1117.279052734375	-324.4555053710938	16.00015258789062	1111.771240234375	-299.8677062988281	75.79567718505859	899.777099609375	-460.0174865722656	136.7024383544922	887.3445434570312	-403.3114013671875	122.41552734375	1048.87939453125	-349.6231994628906	67.61103057861328	707.5732421875	-467.3854370117188	92.80107879638672	777.46044921875	-495.3843994140625	140.9710845947266	778.984619140625	-440.5533447265625	-104.0839309692383	1675.993041992188	-379.1971740722656	-199.4577789306641	1690.575561523438	-584.891357421875	-98.83170318603516	1687.637329101562	-584.9961547851562	-237.2562713623047	1679.173583984375	-424.8817138671875	-353.3730773925781	984.6661376953125	-381.2358093261719	13.32246494293213	996.24072265625	-354.8241577148438	-17.46754455566406	1041.814208984375	-454.4082641601562	-297.1677551269531	1027.781372070312	-476.7320251464844	-290.5461120605469	511.8831787109375	-501.8510437011719	-323.5661010742188	650.0662841796875	-468.5023803710938	-259.3055419921875	31.09309577941895	-457.0756530761719	-283.1741638183594	279.9678649902344	-477.1704711914062	-195.9010162353516	41.43239974975586	-670.5831298828125	-154.4448394775391	37.11186599731445	-600.02197265625	-270.2473754882812	35.2383918762207	-585.16845703125	-209.6117706298828	37.27940368652344	-394.2640991210938	-24.58332633972168	506.2207946777344	-365.6253356933594	19.89882850646973	771.4613647460938	-406.23291015625	-40.27237701416016	386.9414978027344	-348.9097290039062	-82.82996368408203	41.87678146362305	-410.5188598632812	-129.8444671630859	40.58321380615234	-359.6361694335938	-22.61779022216797	32.11822128295898	-302.3851318359375	-124.0531845092773	48.25712585449219	-141.8340606689453	-60.00926971435547	39.90584564208984	-197.8800811767578	
287	2.86	-99.37167358398438	1037.146728515625	-266.8453369140625	-219.4813079833984	1042.55810546875	-274.0517272949219	-173.5386657714844	1120.217895507812	-264.8848266601562	-163.5231018066406	1309.407958984375	-511.8755187988281	-163.3861541748047	1248.072265625	-261.4269409179688	-162.2915191650391	1510.490844726562	-320.0538940429688	-159.5904388427734	1426.115478515625	-484.2422790527344	-95.925048828125	1367.525512695312	-244.1618804931641	-272.3222351074219	1474.065185546875	-299.8500671386719	-328.0633544921875	1476.489868164062	-388.2499694824219	-407.7731018066406	1359.530883789062	-355.1664428710938	-439.5596618652344	1150.298950195312	-364.2646484375	-387.35107421875	1130.924438476562	-295.7452392578125	-384.04052734375	929.2268676757812	-482.5795288085938	-464.2063598632812	910.3857421875	-457.458984375	-455.7014465332031	1045.84716796875	-395.4464416503906	-393.4567260742188	735.6310424804688	-501.91455078125	-459.2647705078125	823.8533325195312	-482.3104248046875	-406.5853881835938	831.663330078125	-524.2825317382812	7.350331783294678	1464.519409179688	-372.6365356445312	70.08176422119141	1397.070556640625	-350.8721008300781	106.6806869506836	1117.752563476562	-327.2831420898438	14.98387336730957	1112.133422851562	-302.6817016601562	75.22006988525391	899.906005859375	-462.388916015625	136.2563629150391	887.8540649414062	-405.7308654785156	121.5012130737305	1049.403930664062	-352.3558349609375	67.40129089355469	707.6129760742188	-468.8246459960938	92.39345550537109	777.4115600585938	-497.2127380371094	140.7460784912109	779.3225708007812	-442.54443359375	-105.4876861572266	1676.079223632812	-381.5746154785156	-200.6412048339844	1691.337158203125	-587.317626953125	-100.0196762084961	1688.450561523438	-587.3263549804688	-238.6103515625	1679.382568359375	-427.3944396972656	-354.4580383300781	985.089599609375	-385.1412963867188	12.26624488830566	996.3353271484375	-357.2378234863281	-18.36905097961426	1041.938354492188	-456.6557922363281	-297.8657531738281	1027.98486328125	-480.3695678710938	-291.3037414550781	511.6592407226562	-503.2324523925781	-324.3035278320312	650.2136840820312	-470.9424438476562	-259.4421997070312	30.99444198608398	-457.0587463378906	-283.6559753417969	279.880859375	-477.7237854003906	-195.9792327880859	41.48902893066406	-670.5308227539062	-154.4927673339844	37.25281524658203	-599.98876953125	-270.2489013671875	35.16711807250977	-585.1548461914062	-209.7650604248047	37.1898307800293	-394.1963500976562	-24.66851997375488	505.8667907714844	-373.5474243164062	19.10725593566895	771.5952758789062	-409.8429870605469	-40.15835952758789	386.3406372070312	-355.8853454589844	-82.69314575195312	41.81319808959961	-410.7269897460938	-129.9684143066406	40.7723503112793	-360.0262756347656	-23.08717155456543	32.70166015625	-302.7767944335938	-124.426513671875	51.21609878540039	-142.5897827148438	-60.392578125	42.02647018432617	-198.4530944824219	
288	2.87	-100.872314453125	1037.30126953125	-269.4609985351562	-220.9115905761719	1042.925659179688	-277.2301025390625	-175.0802459716797	1120.423828125	-267.8489074707031	-164.3644561767578	1309.745239257812	-514.854736328125	-165.1192169189453	1248.25048828125	-264.4917602539062	-163.7523498535156	1510.720581054688	-322.8977355957031	-160.5799102783203	1426.43408203125	-487.1494445800781	-97.38345336914062	1367.798583984375	-246.9596557617188	-273.8209838867188	1474.179565429688	-303.0077819824219	-329.3141479492188	1476.64453125	-391.52099609375	-409.1148681640625	1359.680908203125	-358.777587890625	-441.005859375	1150.483520507812	-368.3832092285156	-389.0055236816406	1130.941162109375	-299.73974609375	-385.040283203125	929.7487182617188	-487.0788269042969	-465.3150939941406	910.772216796875	-462.2689819335938	-457.0692749023438	1046.103271484375	-399.8782958984375	-394.4090270996094	736.29443359375	-507.4247131347656	-460.3497619628906	824.3654174804688	-487.5232238769531	-407.5487365722656	832.41455078125	-529.3262329101562	6.032229423522949	1464.959350585938	-375.1458435058594	68.74612426757812	1397.515747070312	-353.3513488769531	105.672119140625	1118.257202148438	-330.0302124023438	13.96304321289062	1112.5107421875	-305.4469299316406	74.66452026367188	900.161865234375	-464.8518981933594	135.8445892333984	888.4659423828125	-408.2618408203125	120.6155014038086	1049.977416992188	-355.051513671875	67.24510192871094	707.7990112304688	-470.4859008789062	91.99970245361328	777.5270385742188	-499.21923828125	140.5603485107422	779.7981567382812	-444.7236938476562	-106.8755645751953	1676.18017578125	-383.9394226074219	-201.7962036132812	1692.08642578125	-589.7369995117188	-101.1816482543945	1689.246337890625	-589.6442260742188	-239.9476013183594	1679.591674804688	-429.9061889648438	-355.4899597167969	985.54736328125	-388.9017333984375	11.29529571533203	996.4705810546875	-359.4920043945312	-19.22348785400391	1042.075927734375	-458.7486572265625	-298.5221557617188	1028.190673828125	-483.8742065429688	-292.0049743652344	511.4613342285156	-504.4084777832031	-325.0064392089844	650.3705444335938	-473.1846618652344	-259.5771789550781	30.8885669708252	-457.0300598144531	-284.1060180664062	279.7922668457031	-478.1322937011719	-196.1013031005859	41.56968688964844	-670.4743041992188	-154.5788269042969	37.43437194824219	-599.9410400390625	-270.2630004882812	35.08488464355469	-585.1320190429688	-209.9155883789062	37.09405517578125	-394.111572265625	-24.59470558166504	505.5613403320312	-381.7785339355469	18.3732852935791	771.75	-413.3884582519531	-39.89753341674805	385.8140258789062	-363.1698913574219	-82.48642730712891	41.75722122192383	-411.039794921875	-130.0972900390625	41.04875183105469	-360.5330810546875	-23.61249351501465	33.41468811035156	-303.2704162597656	-124.9108276367188	54.5742301940918	-143.5309600830078	-60.83064651489258	44.45370864868164	-199.1253967285156	
289	2.88	-102.3324737548828	1037.488647460938	-271.9518432617188	-222.2983245849609	1043.335083007812	-280.2783508300781	-176.6009979248047	1120.680297851562	-270.6932373046875	-165.1295318603516	1310.065551757812	-517.7550048828125	-166.8484497070312	1248.464111328125	-267.4502563476562	-165.2311248779297	1510.974487304688	-325.7189636230469	-161.5179290771484	1426.738647460938	-490.007080078125	-98.85732269287109	1368.129150390625	-249.6637115478516	-275.3405456542969	1474.329711914062	-306.1839294433594	-330.5450439453125	1476.805541992188	-394.8388061523438	-410.4574279785156	1359.857543945312	-362.4538879394531	-442.4593200683594	1150.701904296875	-372.5185241699219	-390.7091369628906	1131.003051757812	-303.7355651855469	-385.9664611816406	930.3165893554688	-491.5848388671875	-466.3856506347656	911.1962280273438	-467.117919921875	-458.4253540039062	1046.400146484375	-404.3439331054688	-395.3025207519531	737.0083618164062	-512.9788208007812	-461.3816528320312	824.9225463867188	-492.7899169921875	-408.4412231445312	833.2173461914062	-534.4043579101562	4.72736120223999	1465.429443359375	-377.5496215820312	67.41634368896484	1397.997436523438	-355.685791015625	104.6766586303711	1118.787353515625	-332.6621704101562	12.92327785491943	1112.901977539062	-308.1531066894531	74.15020751953125	900.55517578125	-467.4028625488281	135.4535369873047	889.164306640625	-410.8700866699219	119.7537231445312	1050.58984375	-357.67236328125	67.14445495605469	708.1417236328125	-472.4374694824219	91.65431213378906	777.8289794921875	-501.4301452636719	140.4004821777344	780.4037475585938	-447.080078125	-108.2439880371094	1676.286987304688	-386.2877197265625	-202.9209747314453	1692.817626953125	-592.1452026367188	-102.3146667480469	1690.020263671875	-591.9468994140625	-241.2636108398438	1679.790649414062	-432.4103393554688	-356.4600524902344	986.023193359375	-392.4902954101562	10.36271858215332	996.615478515625	-361.6320495605469	-20.02034950256348	1042.225952148438	-460.7364807128906	-299.1497192382812	1028.402099609375	-487.2273254394531	-292.6585998535156	511.288818359375	-505.4014587402344	-325.6813354492188	650.5350341796875	-475.2408752441406	-259.7117919921875	30.77517700195312	-456.991943359375	-284.5183410644531	279.6929321289062	-478.412109375	-196.2648162841797	41.67131423950195	-670.4175415039062	-154.7079010009766	37.65931701660156	-599.8765869140625	-270.2906494140625	34.99247741699219	-585.1016235351562	-210.0670623779297	36.99651336669922	-394.0157775878906	-24.34932327270508	505.3255004882812	-390.2089233398438	17.68813705444336	771.9315795898438	-416.9075622558594	-39.48577499389648	385.3922119140625	-370.669921875	-82.19766235351562	41.72688293457031	-411.4906921386719	-130.2177276611328	41.43275833129883	-361.1824645996094	-24.16817665100098	34.26926422119141	-303.8808288574219	-125.4927368164062	58.30063629150391	-144.6797943115234	-61.30673980712891	47.16839599609375	-199.9164276123047	
